<?xml version="1.0" encoding="utf-8"?>
<svg viewBox="0 0 46.86 28.0322" xmlns="http://www.w3.org/2000/svg">
    <defs>
        <style>.cls-1{fill:#fff;}</style>
    </defs>
    <g transform="matrix(1, 0, 0, 1, 3.552713678800501e-15, 3.552713678800501e-15)">
        <g>
            <path class="cls-1"
                  d="M26.86,4.45A13.87,13.87,0,0,0,23.93.38L23.41,0l-.52.38A14.14,14.14,0,0,0,20,4.45a23.48,23.48,0,0,0-2.5,10.72,11.18,11.18,0,0,0,2,6.94,9.7,9.7,0,0,0,3.08,2.61l.28.16.55.46.55-.45.29-.17a9.81,9.81,0,0,0,3.08-2.61,11.24,11.24,0,0,0,2-6.94A23.37,23.37,0,0,0,26.86,4.45ZM23.41,24.2c-.6-.49-5.09-2-5.06-9,0-9,4.67-13.79,5.06-14.08.4.29,5,5,5.07,14.08C28.5,22.16,24,23.71,23.41,24.2Z"/>
            <path class="cls-1"
                  d="M5.43,14.15A14.16,14.16,0,0,0,.55,15.3L0,15.63l.16.63a13.57,13.57,0,0,0,2.63,4.26,23.5,23.5,0,0,0,9,6.41,11.18,11.18,0,0,0,7.19.78,9.29,9.29,0,0,0,3.58-1.85,2.93,2.93,0,0,1,.27-.19l.63-.33-.21-.69s0-.2-.05-.33a9.44,9.44,0,0,0-1.23-3.84A11.21,11.21,0,0,0,16.28,16,23.52,23.52,0,0,0,5.43,14.15ZM22.36,24.9c-.69.37-3.83,3.92-10.28,1.22C3.74,22.63,1.12,16.53,1,16.05c.42-.25,6.58-2.72,14.94.71C22.42,19.42,22.13,24.15,22.36,24.9Z"/>
            <path class="cls-1"
                  d="M30.53,16a11.21,11.21,0,0,0-5.64,4.53,9.44,9.44,0,0,0-1.23,3.84c0,.13,0,.29-.05.33l-.2.69.62.33a2.93,2.93,0,0,1,.27.19,9.27,9.27,0,0,0,3.59,1.85,11.16,11.16,0,0,0,7.18-.78,23.5,23.5,0,0,0,9-6.41,13.94,13.94,0,0,0,2.64-4.26l.15-.63-.55-.33a14.08,14.08,0,0,0-4.88-1.15A23.53,23.53,0,0,0,30.53,16Zm.33.81c8.37-3.43,14.52-1,15-.71-.12.48-2.73,6.58-11.07,10.07-6.46,2.7-9.6-.85-10.29-1.22C24.68,24.15,24.39,19.42,30.86,16.76Z"/>
            <path class="cls-1"
                  d="M14.67,6.05A13.64,13.64,0,0,0,10,4.3l-.64,0-.22.6a13.77,13.77,0,0,0-.18,5,23.64,23.64,0,0,0,3.88,10.3,11.19,11.19,0,0,0,5.54,4.64,9.37,9.37,0,0,0,4,.46l.33,0,.71.08.21-.69a3,3,0,0,1,.14-.3,9.45,9.45,0,0,0,1.11-3.88,11.17,11.17,0,0,0-2.17-6.89A23.51,23.51,0,0,0,14.67,6.05Zm8.11,18.34c-.78-.08-5.36,1.13-9.23-4.7-5-7.54-3.78-14-3.61-14.52.49,0,7,1.4,12,8.9C25.88,19.87,23,23.64,22.78,24.39Z"/>
            <path class="cls-1"
                  d="M24.11,13.58a11.17,11.17,0,0,0-2.17,6.89,9.45,9.45,0,0,0,1.11,3.88l.15.3.21.69.7-.08.33,0a9.37,9.37,0,0,0,4-.46A11.19,11.19,0,0,0,34,20.18a23.64,23.64,0,0,0,3.88-10.3,14.16,14.16,0,0,0-.17-5l-.22-.6-.65,0a13.64,13.64,0,0,0-4.69,1.75A23.6,23.6,0,0,0,24.11,13.58Zm.73.49c5.05-7.5,11.54-8.88,12-8.9.17.47,1.39,7-3.61,14.52-3.87,5.83-8.45,4.62-9.23,4.7C23.8,23.64,20.93,19.87,24.84,14.07Z"/>
        </g>
    </g>
</svg>
